<?xml version="1.0" encoding="iso-8859-1"?>
<!-- Generator: Adobe Illustrator 19.0.0, SVG Export Plug-In . SVG Version: 6.00 Build 0)  -->
<svg version="1.1" id="Capa_1" xmlns="http://www.w3.org/2000/svg" xmlns:xlink="http://www.w3.org/1999/xlink" x="0px"
	y="0px" viewBox="0 0 512 512" style="enable-background:new 0 0 512 512;" xml:space="preserve">

	<polyline style="fill:hsl(226, 100%, 29%);" points="512,191.593 512,257.623 170.667,454.233 0,355.817 0,290.127 0,290.127 341.333,93.058 
	512,191.593 " />
	<polygon style="fill:hsl(226, 95%, 39%);" points="512,191.593 512,257.623 170.667,454.233 170.667,388.778 " />
	<g>
		<polygon style="fill:hsl(226, 100%, 39%);"
			points="170.66,401.894 512,204.751 512,217.91 170.66,415.115 0.241,316.723 0.241,303.564 	" />
		<polygon style="fill:hsl(226, 100%, 39%);"
			points="170.724,428.104 512,231.068 512,244.227 170.724,441.323 0,342.887 0,329.742 	" />
	</g>
	<g>
		<polygon style="fill:hsl(226, 100%, 29%);" points="512,204.751 512,217.91 170.66,415.115 170.66,401.894 	" />
		<polygon style="fill:hsl(226, 100%, 29%);" points="512,231.068 512,244.227 170.724,441.323 170.724,428.104 	" />
	</g>
	<polygon style="fill:hsl(226, 100%, 35%);" points="62.515,326.263 0,290.127 0,290.127 0,290.127 341.333,93.058 512,191.593 170.667,388.778 
	" />
	<polygon style="fill:#FFE6C6;" points="32.651,290.172 170.85,369.806 479.496,191.593 341.352,111.902 " />
	<polygon style="fill:hsl(226, 100%, 29%);"
		points="447.279,191.593 341.465,130.501 65.497,290.172 171.029,350.969 " />
	<polygon style="fill:#E5AC91;" points="227.556,158.748 398.222,257.321 398.222,323.16 284.681,388.525 284.681,322.913 
	113.874,224.382 " />
	<polygon style="fill:#FFD6A0;" points="227.556,158.748 398.222,257.321 284.681,322.913 113.874,224.382 " />
	<polygon style="fill:#E5AC91;" points="284.681,322.913 284.681,388.525 398.222,323.16 398.222,257.321 " />
	<polygon style="fill:#FFE6C6;" points="129.126,215.576 212.446,167.471 383.059,266.036 299.876,314.112 " />
	<polygon style="fill:#FFCBA1;" points="383.059,266.036 383.059,331.894 299.87,379.811 299.876,314.112 " />
	<g>
		<path style="fill:#FFE6C6;" d="M328.419,139.789c9.767,5.639,24.541,6.251,33,1.368c8.458-4.883,7.398-13.414-2.369-19.053
		s-24.541-6.251-33-1.368C317.591,125.62,318.652,134.15,328.419,139.789z" />
		<path style="fill:#FFE6C6;" d="M338.053,189.003c5.657,3.266,14.214,3.621,19.113,0.792c4.899-2.828,4.285-7.769-1.372-11.035
		s-14.214-3.621-19.113-0.792C331.782,180.796,332.396,185.736,338.053,189.003z" />
		<path style="fill:#FFE6C6;" d="M148.609,298.151c5.657,3.266,14.214,3.621,19.113,0.792c4.899-2.828,4.285-7.769-1.372-11.035
		s-14.214-3.621-19.113-0.792C142.337,289.944,142.952,294.885,148.609,298.151z" />
		<path style="fill:#FFE6C6;" d="M51.338,299.982c9.767,5.639,24.541,6.251,33,1.368c8.458-4.883,7.397-13.414-2.369-19.052
		c-9.767-5.639-24.541-6.251-33-1.368S41.571,294.343,51.338,299.982z" />
		<path style="fill:#FFE6C6;" d="M430.948,199.11c9.767,5.639,24.541,6.251,33,1.368c8.458-4.883,7.398-13.414-2.369-19.052
		c-9.767-5.639-24.541-6.251-33-1.368C420.12,184.941,421.181,193.471,430.948,199.11z" />
		<path style="fill:#FFE6C6;" d="M153.351,359.352c9.767,5.639,24.542,6.251,33,1.368s7.398-13.413-2.369-19.052
		s-24.541-6.251-33-1.368C142.524,345.183,143.584,353.713,153.351,359.352z" />
	</g>
	<g>
		<polygon style="fill:#E6C190;" points="346.924,267.868 208.7,188.124 193.932,196.646 332.156,276.56 	" />
		<polygon style="fill:#E6C190;" points="300.764,275.757 195.198,214.789 180.515,223.313 286.081,284.176 	" />
	</g>
</svg>